# xmcd
#
# Track frame offsets: 
#        150
#        14407
#        27030
#        36412
#        50932
#        66562
#        83007
#        97732
#        105257
#        120677
#
# Disc length: 1745 seconds
#
# Revision: 3
# Processed by: cddbd v1.4PL0 Copyright (c) Steve Scherf et al.
# Submitted via: ExactAudioCopy v0.95a3
#
DISCID=7c06cf0a
DTITLE=Serge Gainsbourg  - "Rock around the bunker"
DYEAR=1975
DGENRE=Rock and Roll
TTITLE0=Nazi rock
TTITLE1=Tata teutonne 
TTITLE2=J'entends des voix off
TTITLE3=Eva
TTITLE4=Smoke gets in your eyes
TTITLE5=Zig zig avec toi
TTITLE6=Est-ce est-ce si bon?
TTITLE7=Yellow star
TTITLE8=Rock around the bunker
TTITLE9=S.S. in Uruguay
EXTD=YEAR: 1975
EXTT0=
EXTT1=
EXTT2=
EXTT3=
EXTT4=
EXTT5=
EXTT6=
EXTT7=
EXTT8=
EXTT9=
PLAYORDER=
